<?xml version="1.0" encoding="UTF-8" standalone="no"?>
<svg
   version="1.1"
   x="0px"
   y="0px"
   viewBox="0 0 52 48"
   xml:space="preserve"
   id="svg76"
   sodipodi:docname="comingsoon.svg"
   inkscape:version="1.2.2 (b0a8486541, 2022-12-01)"
   width="52"
   height="48"
   xmlns:inkscape="http://www.inkscape.org/namespaces/inkscape"
   xmlns:sodipodi="http://sodipodi.sourceforge.net/DTD/sodipodi-0.dtd"
   xmlns="http://www.w3.org/2000/svg"
   xmlns:svg="http://www.w3.org/2000/svg"><defs
     id="defs80" /><sodipodi:namedview
     id="namedview78"
     pagecolor="#ffffff"
     bordercolor="#000000"
     borderopacity="0.25"
     inkscape:showpageshadow="2"
     inkscape:pageopacity="0.0"
     inkscape:pagecheckerboard="0"
     inkscape:deskcolor="#d1d1d1"
     showgrid="false"
     inkscape:zoom="10.475"
     inkscape:cx="31.980907"
     inkscape:cy="32.410501"
     inkscape:window-width="1920"
     inkscape:window-height="1004"
     inkscape:window-x="0"
     inkscape:window-y="39"
     inkscape:window-maximized="1"
     inkscape:current-layer="g70" /><g
     id="g70"
     transform="translate(-6.1911207,-8.1573705)"><path
       d="m 23.665455,35.075359 8.01001,-2.930053 0.159973,-0.109986 c 1.580017,-1.119993 3.090027,-2.349973 4.520019,-3.69 0.04999,-0.299988 0.08002,-0.609986 0.109986,-0.919983 h -2.070008 c -0.549987,0 -1,-0.440003 -1,-1 0,-0.549988 0.450013,-1 1,-1 h 2.059998 c -0.48999,-5.960022 -5.25,-10.729981 -11.209961,-11.210022 v 2.059997 c 0,0.550049 -0.450012,1 -1,1 -0.559997,0 -1,-0.449951 -1,-1 v -2.059997 c -5.970032,0.480041 -10.740052,5.25 -11.220033,11.210022 h 2.059998 c 0.549988,0 1,0.450012 1,1 0,0.559997 -0.450012,1 -1,1 h -2.059998 c 0.460022,5.619993 4.710023,10.19 10.190004,11.099974 0.440002,-0.880005 1.090027,-1.639954 1.900024,-2.209961 z M 23.245472,27.59532 v -5.029969 c 0,-0.550048 0.440002,-1 1,-1 0.549988,0 1,0.449952 1,1 v 4.299988 l 3.48999,1.119995 c 0.529968,0.169983 0.820007,0.729981 0.649964,1.25 -0.130005,0.429993 -0.529969,0.700013 -0.949952,0.700013 -0.100036,0 -0.200012,-0.02002 -0.300048,-0.04999 L 23.935474,28.545332 C 23.52544,28.415327 23.245472,28.035322 23.245472,27.59532 Z"
       id="path58"
       style="fill:#808080" /><path
       d="m 21.585438,41.175335 c 0,-0.23999 0.01001,-0.479981 0.04004,-0.720032 C 15.00542,39.225323 9.9754515,33.405315 9.9754515,26.435347 c 0,-7.869995 6.4000255,-14.27002 14.2700205,-14.27002 7.789978,0 14.130005,6.280029 14.25,14.049988 0.859985,-0.899963 1.669983,-1.839966 2.449951,-2.820007 l 0.01001,-0.0099 C 39.405445,14.735334 31.325428,8.375349 22.005421,9.5653515 14.435473,10.525312 8.3354368,16.645308 7.3754759,24.215315 6.1554441,33.79533 12.935473,42.085308 21.965443,43.265301 c -0.01001,-0.01996 -0.02002,-0.04999 -0.02997,-0.06995 -0.230041,-0.650024 -0.350036,-1.320007 -0.350036,-2.020019 z"
       id="path60"
       style="fill:#b3b3b3" /><path
       d="m 32.995472,33.665325 -0.380005,0.27002 -6.390015,2.329956 0.384644,1.057007 -0.452087,0.16333 c -1.590027,0.580017 -2.570008,2.089965 -2.570008,3.690002 0,0.440002 0.07001,0.890015 0.229981,1.329956 0.73999,2.030029 2.98999,3.080017 5.020019,2.340027 l 0.45044,-0.163574 0.427002,1.173279 6.390014,-2.330017 0.469971,-0.02997 c 4.390015,-0.359985 8.790039,-0.09003 13.080017,0.789978 L 42.505421,24.645308 c -2.729981,3.430053 -5.919983,6.470031 -9.509949,9.020017 z"
       id="path62"
       style="fill:#b3b3b3" /><path
       d="m 48.385426,26.735334 -2.519959,-6.919983 c -0.610046,1 -1.25,1.979981 -1.940002,2.929993 l 8.049988,22.080015 c 1.130004,0.289978 2.25,0.619995 3.359985,1 l -2.52002,-6.930053 z"
       id="path64"
       style="fill:#808080" /><path
       d="m 56.355457,30.715315 c -0.950012,-2.630005 -3.380005,-4.309998 -6.01001,-4.450012 l 4.26001,11.720029 c 0.640015,-0.590026 1.159973,-1.309997 1.52002,-2.090026 0.73999,-1.579956 0.869995,-3.429993 0.22998,-5.179991 z"
       id="path66"
       style="fill:#808080" /><path
       d="m 36.125477,45.645306 -4.740052,1.730041 2.02002,5.539978 c 0.48999,1.349976 2.01001,2.02002 3.340027,1.470032 1.23999,-0.52002 1.859985,-1.930054 1.399963,-3.190003 z"
       id="path68"
       style="fill:#b3b3b3" /></g></svg>
